<svg width="400" height="400" viewBox="0 0 400 400" xmlns="http://www.w3.org/2000/svg">
<defs>
    <filter id="shadow" x="-20%" y="-20%" width="140%" height="140%">
        <feDropShadow dx="2" dy="4" stdDeviation="3" flood-opacity="0.3"/>
    </filter>
    <filter id="glow" x="-50%" y="-50%" width="200%" height="200%">
        <feGaussianBlur stdDeviation="8" result="blur"/>
        <feMerge><feMergeNode in="blur"/><feMergeNode in="SourceGraphic"/></feMerge>
    </filter>
    <linearGradient id="rainbow-body" x1="0%" y1="0%" x2="100%" y2="100%">
        <stop offset="0%" stop-color="#FF6B6B"/><stop offset="25%" stop-color="#FFE66D"/>
        <stop offset="50%" stop-color="#4ECDC4"/><stop offset="75%" stop-color="#45B7D1"/>
        <stop offset="100%" stop-color="#DDA0DD"/>
    </linearGradient>
    <radialGradient id="galaxy-body" cx="30%" cy="30%">
        <stop offset="0%" stop-color="#E6E6FA"/><stop offset="50%" stop-color="#9370DB"/>
        <stop offset="100%" stop-color="#1A0033"/>
    </radialGradient>
    <linearGradient id="holo-body" x1="0%" y1="0%" x2="100%" y2="100%">
        <stop offset="0%" stop-color="#FF00FF"/><stop offset="50%" stop-color="#00FFFF"/>
        <stop offset="100%" stop-color="#FFFF00"/>
    </linearGradient>
    <linearGradient id="sky-gradient" x1="0%" y1="0%" x2="0%" y2="100%">
        <stop offset="0%" stop-color="#87CEEB"/><stop offset="100%" stop-color="#E0F4FF"/>
    </linearGradient>
    <linearGradient id="grass-gradient" x1="0%" y1="0%" x2="0%" y2="100%">
        <stop offset="0%" stop-color="#90EE90"/><stop offset="100%" stop-color="#228B22"/>
    </linearGradient>
    <linearGradient id="sunset-gradient" x1="0%" y1="0%" x2="0%" y2="100%">
        <stop offset="0%" stop-color="#FF6B6B"/><stop offset="50%" stop-color="#FFE66D"/>
        <stop offset="100%" stop-color="#4ECDC4"/>
    </linearGradient>
    <linearGradient id="aurora-gradient" x1="0%" y1="0%" x2="100%" y2="100%">
        <stop offset="0%" stop-color="#0D1B2A"/><stop offset="30%" stop-color="#00FF7F"/>
        <stop offset="70%" stop-color="#FF00FF"/><stop offset="100%" stop-color="#0D1B2A"/>
    </linearGradient>
    <radialGradient id="multiverse-gradient" cx="50%" cy="50%">
        <stop offset="0%" stop-color="#FFD700"/><stop offset="40%" stop-color="#FF00FF"/>
        <stop offset="70%" stop-color="#00FFFF"/><stop offset="100%" stop-color="#000"/>
    </radialGradient>
    <linearGradient id="rift-gradient" x1="0%" y1="0%" x2="100%" y2="100%">
        <stop offset="0%" stop-color="#000"/><stop offset="30%" stop-color="#9400D3"/>
        <stop offset="50%" stop-color="#00FFFF"/><stop offset="70%" stop-color="#9400D3"/>
        <stop offset="100%" stop-color="#000"/>
    </linearGradient>
    <linearGradient id="heaven-gradient" x1="0%" y1="0%" x2="0%" y2="100%">
        <stop offset="0%" stop-color="#FFF"/><stop offset="50%" stop-color="#FFD700" stop-opacity="0.3"/>
        <stop offset="100%" stop-color="#F0F8FF"/>
    </linearGradient>
    <clipPath id="head-clip"><ellipse cx="200" cy="200" rx="110" ry="115"/></clipPath>
</defs>
<rect width="400" height="400" fill="#0D1B2A"/>
<circle cx="318" cy="362" r="1" fill="white" opacity="0.4"/>
<circle cx="236" cy="324" r="2" fill="white" opacity="0.5"/>
<circle cx="154" cy="286" r="1" fill="white" opacity="0.6000000000000001"/>
<circle cx="72" cy="248" r="2" fill="white" opacity="0.7000000000000001"/>
<circle cx="390" cy="210" r="1" fill="white" opacity="0.8"/>
<circle cx="308" cy="172" r="2" fill="white" opacity="0.4"/>
<circle cx="226" cy="134" r="1" fill="white" opacity="0.5"/>
<circle cx="144" cy="96" r="2" fill="white" opacity="0.6000000000000001"/>
<circle cx="62" cy="58" r="1" fill="white" opacity="0.7000000000000001"/>
<circle cx="380" cy="20" r="2" fill="white" opacity="0.8"/>
<circle cx="298" cy="382" r="1" fill="white" opacity="0.4"/>
<circle cx="216" cy="344" r="2" fill="white" opacity="0.5"/>
<circle cx="134" cy="306" r="1" fill="white" opacity="0.6000000000000001"/>
<circle cx="52" cy="268" r="2" fill="white" opacity="0.7000000000000001"/>
<circle cx="370" cy="230" r="1" fill="white" opacity="0.8"/>
<circle cx="288" cy="192" r="2" fill="white" opacity="0.4"/>
<circle cx="206" cy="154" r="1" fill="white" opacity="0.5"/>
<circle cx="124" cy="116" r="2" fill="white" opacity="0.6000000000000001"/>
<circle cx="42" cy="78" r="1" fill="white" opacity="0.7000000000000001"/>
<circle cx="360" cy="40" r="2" fill="white" opacity="0.8"/>
<circle cx="278" cy="2" r="1" fill="white" opacity="0.4"/>
<circle cx="196" cy="364" r="2" fill="white" opacity="0.5"/>
<circle cx="114" cy="326" r="1" fill="white" opacity="0.6000000000000001"/>
<circle cx="32" cy="288" r="2" fill="white" opacity="0.7000000000000001"/>
<circle cx="350" cy="250" r="1" fill="white" opacity="0.8"/>
<circle cx="268" cy="212" r="2" fill="white" opacity="0.4"/>
<circle cx="186" cy="174" r="1" fill="white" opacity="0.5"/>
<circle cx="104" cy="136" r="2" fill="white" opacity="0.6000000000000001"/>
<circle cx="22" cy="98" r="1" fill="white" opacity="0.7000000000000001"/>
<circle cx="340" cy="60" r="2" fill="white" opacity="0.8"/>
<circle cx="258" cy="22" r="1" fill="white" opacity="0.4"/>
<circle cx="176" cy="384" r="2" fill="white" opacity="0.5"/>
<circle cx="94" cy="346" r="1" fill="white" opacity="0.6000000000000001"/>
<circle cx="12" cy="308" r="2" fill="white" opacity="0.7000000000000001"/>
<circle cx="330" cy="270" r="1" fill="white" opacity="0.8"/>
<circle cx="248" cy="232" r="2" fill="white" opacity="0.4"/>
<circle cx="166" cy="194" r="1" fill="white" opacity="0.5"/>
<circle cx="84" cy="156" r="2" fill="white" opacity="0.6000000000000001"/>
<circle cx="2" cy="118" r="1" fill="white" opacity="0.7000000000000001"/>
<circle cx="320" cy="80" r="2" fill="white" opacity="0.8"/>
<circle cx="200" cy="200" r="160" fill="none" stroke="#9400D3" stroke-width="4" opacity="0.3"/><circle cx="200" cy="200" r="175" fill="none" stroke="#4B0082" stroke-width="2" opacity="0.2"/>
<ellipse cx="115" cy="140" rx="45" ry="50" fill="#F5F5DC" filter="url(#shadow)"/>
<ellipse cx="115" cy="140" rx="30" ry="35" fill="#FFB6C1"/>
<ellipse cx="115" cy="145" rx="18" ry="22" fill="#FF9999"/>
<ellipse cx="285" cy="140" rx="45" ry="50" fill="#F5F5DC" filter="url(#shadow)"/>
<ellipse cx="285" cy="140" rx="30" ry="35" fill="#FFB6C1"/>
<ellipse cx="285" cy="145" rx="18" ry="22" fill="#FF9999"/>
<ellipse cx="200" cy="200" rx="110" ry="115" fill="#F5F5DC" filter="url(#shadow)"/>
<ellipse cx="180" cy="140" rx="50" ry="30" fill="#FFFFF0" opacity="0.3"/>
<g clip-path="url(#head-clip)"><rect x="90" y="100" width="220" height="12" fill="#000" opacity="0.08" transform="rotate(-15 200 200)"/><rect x="90" y="135" width="220" height="12" fill="#000" opacity="0.08" transform="rotate(-15 200 200)"/><rect x="90" y="170" width="220" height="12" fill="#000" opacity="0.08" transform="rotate(-15 200 200)"/><rect x="90" y="205" width="220" height="12" fill="#000" opacity="0.08" transform="rotate(-15 200 200)"/><rect x="90" y="240" width="220" height="12" fill="#000" opacity="0.08" transform="rotate(-15 200 200)"/><rect x="90" y="275" width="220" height="12" fill="#000" opacity="0.08" transform="rotate(-15 200 200)"/></g>
<ellipse cx="200" cy="235" rx="70" ry="60" fill="#FFDAB9"/>
<ellipse cx="200" cy="250" rx="55" ry="40" fill="#DEB887" opacity="0.3"/>
<ellipse cx="162" cy="185" rx="22" ry="24" fill="#000" opacity="0.08"/>
<ellipse cx="238" cy="185" rx="22" ry="24" fill="#000" opacity="0.08"/>
<ellipse cx="162" cy="185" rx="18" ry="20" fill="white"/>
<circle cx="162" cy="185" r="12" fill="#3D2314"/>
<circle cx="162" cy="185" r="6" fill="#000"/>
<circle cx="166" cy="181" r="4" fill="white"/>
<ellipse cx="238" cy="185" rx="18" ry="20" fill="white"/>
<circle cx="238" cy="185" r="12" fill="#3D2314"/>
<circle cx="238" cy="185" r="6" fill="#000"/>
<circle cx="242" cy="181" r="4" fill="white"/>
<g>
            <ellipse cx="200" cy="230" rx="25" ry="18" fill="#8B4513"/>
            <ellipse cx="200" cy="230" rx="22" ry="15" fill="#A0522D"/>
            <ellipse cx="192" cy="230" rx="5" ry="7" fill="#5D2E0C"/>
            <ellipse cx="208" cy="230" rx="5" ry="7" fill="#5D2E0C"/>
        </g>
<ellipse cx="200" cy="265" rx="28" ry="18" fill="#8B0000"/>
<ellipse cx="200" cy="272" rx="18" ry="7" fill="#FF6B6B"/>
<rect x="155" y="55" width="90" height="18" rx="3" fill="#8B0000"/><rect x="145" y="70" width="110" height="8" fill="#8B0000"/>

<g transform="translate(325, 15)">
            <rect width="65" height="22" rx="4" fill="#A0A0A0" opacity="0.9"/>
            <text x="32" y="15" font-size="8" fill="#FFF" text-anchor="middle" font-family="sans-serif" font-weight="bold">COMMON</text>
        </g>
        <g transform="translate(10, 15)">
            <rect width="45" height="22" rx="4" fill="#333" opacity="0.8"/>
            <text x="22" y="15" font-size="9" fill="#FFF" text-anchor="middle" font-family="sans-serif">Gen 1</text>
        </g>
</svg>