<svg width="400" height="400" viewBox="0 0 400 400" xmlns="http://www.w3.org/2000/svg">
<defs>
    <filter id="shadow" x="-20%" y="-20%" width="140%" height="140%">
        <feDropShadow dx="2" dy="4" stdDeviation="3" flood-opacity="0.3"/>
    </filter>
    <filter id="glow" x="-50%" y="-50%" width="200%" height="200%">
        <feGaussianBlur stdDeviation="8" result="blur"/>
        <feMerge><feMergeNode in="blur"/><feMergeNode in="SourceGraphic"/></feMerge>
    </filter>
    <linearGradient id="rainbow-body" x1="0%" y1="0%" x2="100%" y2="100%">
        <stop offset="0%" stop-color="#FF6B6B"/><stop offset="25%" stop-color="#FFE66D"/>
        <stop offset="50%" stop-color="#4ECDC4"/><stop offset="75%" stop-color="#45B7D1"/>
        <stop offset="100%" stop-color="#DDA0DD"/>
    </linearGradient>
    <radialGradient id="galaxy-body" cx="30%" cy="30%">
        <stop offset="0%" stop-color="#E6E6FA"/><stop offset="50%" stop-color="#9370DB"/>
        <stop offset="100%" stop-color="#1A0033"/>
    </radialGradient>
    <linearGradient id="holo-body" x1="0%" y1="0%" x2="100%" y2="100%">
        <stop offset="0%" stop-color="#FF00FF"/><stop offset="50%" stop-color="#00FFFF"/>
        <stop offset="100%" stop-color="#FFFF00"/>
    </linearGradient>
    <linearGradient id="sky-gradient" x1="0%" y1="0%" x2="0%" y2="100%">
        <stop offset="0%" stop-color="#87CEEB"/><stop offset="100%" stop-color="#E0F4FF"/>
    </linearGradient>
    <linearGradient id="grass-gradient" x1="0%" y1="0%" x2="0%" y2="100%">
        <stop offset="0%" stop-color="#90EE90"/><stop offset="100%" stop-color="#228B22"/>
    </linearGradient>
    <linearGradient id="sunset-gradient" x1="0%" y1="0%" x2="0%" y2="100%">
        <stop offset="0%" stop-color="#FF6B6B"/><stop offset="50%" stop-color="#FFE66D"/>
        <stop offset="100%" stop-color="#4ECDC4"/>
    </linearGradient>
    <linearGradient id="aurora-gradient" x1="0%" y1="0%" x2="100%" y2="100%">
        <stop offset="0%" stop-color="#0D1B2A"/><stop offset="30%" stop-color="#00FF7F"/>
        <stop offset="70%" stop-color="#FF00FF"/><stop offset="100%" stop-color="#0D1B2A"/>
    </linearGradient>
    <radialGradient id="multiverse-gradient" cx="50%" cy="50%">
        <stop offset="0%" stop-color="#FFD700"/><stop offset="40%" stop-color="#FF00FF"/>
        <stop offset="70%" stop-color="#00FFFF"/><stop offset="100%" stop-color="#000"/>
    </radialGradient>
    <linearGradient id="rift-gradient" x1="0%" y1="0%" x2="100%" y2="100%">
        <stop offset="0%" stop-color="#000"/><stop offset="30%" stop-color="#9400D3"/>
        <stop offset="50%" stop-color="#00FFFF"/><stop offset="70%" stop-color="#9400D3"/>
        <stop offset="100%" stop-color="#000"/>
    </linearGradient>
    <linearGradient id="heaven-gradient" x1="0%" y1="0%" x2="0%" y2="100%">
        <stop offset="0%" stop-color="#FFF"/><stop offset="50%" stop-color="#FFD700" stop-opacity="0.3"/>
        <stop offset="100%" stop-color="#F0F8FF"/>
    </linearGradient>
    <clipPath id="head-clip"><ellipse cx="200" cy="200" rx="110" ry="115"/></clipPath>
</defs>
<rect width="400" height="400" fill="#0D1B2A"/>
<circle cx="83" cy="97" r="1" fill="white" opacity="0.4"/>
<circle cx="166" cy="194" r="2" fill="white" opacity="0.5"/>
<circle cx="249" cy="291" r="1" fill="white" opacity="0.6000000000000001"/>
<circle cx="332" cy="388" r="2" fill="white" opacity="0.7000000000000001"/>
<circle cx="15" cy="85" r="1" fill="white" opacity="0.8"/>
<circle cx="98" cy="182" r="2" fill="white" opacity="0.4"/>
<circle cx="181" cy="279" r="1" fill="white" opacity="0.5"/>
<circle cx="264" cy="376" r="2" fill="white" opacity="0.6000000000000001"/>
<circle cx="347" cy="73" r="1" fill="white" opacity="0.7000000000000001"/>
<circle cx="30" cy="170" r="2" fill="white" opacity="0.8"/>
<circle cx="113" cy="267" r="1" fill="white" opacity="0.4"/>
<circle cx="196" cy="364" r="2" fill="white" opacity="0.5"/>
<circle cx="279" cy="61" r="1" fill="white" opacity="0.6000000000000001"/>
<circle cx="362" cy="158" r="2" fill="white" opacity="0.7000000000000001"/>
<circle cx="45" cy="255" r="1" fill="white" opacity="0.8"/>
<circle cx="128" cy="352" r="2" fill="white" opacity="0.4"/>
<circle cx="211" cy="49" r="1" fill="white" opacity="0.5"/>
<circle cx="294" cy="146" r="2" fill="white" opacity="0.6000000000000001"/>
<circle cx="377" cy="243" r="1" fill="white" opacity="0.7000000000000001"/>
<circle cx="60" cy="340" r="2" fill="white" opacity="0.8"/>
<circle cx="143" cy="37" r="1" fill="white" opacity="0.4"/>
<circle cx="226" cy="134" r="2" fill="white" opacity="0.5"/>
<circle cx="309" cy="231" r="1" fill="white" opacity="0.6000000000000001"/>
<circle cx="392" cy="328" r="2" fill="white" opacity="0.7000000000000001"/>
<circle cx="75" cy="25" r="1" fill="white" opacity="0.8"/>
<circle cx="158" cy="122" r="2" fill="white" opacity="0.4"/>
<circle cx="241" cy="219" r="1" fill="white" opacity="0.5"/>
<circle cx="324" cy="316" r="2" fill="white" opacity="0.6000000000000001"/>
<circle cx="7" cy="13" r="1" fill="white" opacity="0.7000000000000001"/>
<circle cx="90" cy="110" r="2" fill="white" opacity="0.8"/>
<circle cx="173" cy="207" r="1" fill="white" opacity="0.4"/>
<circle cx="256" cy="304" r="2" fill="white" opacity="0.5"/>
<circle cx="339" cy="1" r="1" fill="white" opacity="0.6000000000000001"/>
<circle cx="22" cy="98" r="2" fill="white" opacity="0.7000000000000001"/>
<circle cx="105" cy="195" r="1" fill="white" opacity="0.8"/>
<circle cx="188" cy="292" r="2" fill="white" opacity="0.4"/>
<circle cx="271" cy="389" r="1" fill="white" opacity="0.5"/>
<circle cx="354" cy="86" r="2" fill="white" opacity="0.6000000000000001"/>
<circle cx="37" cy="183" r="1" fill="white" opacity="0.7000000000000001"/>
<circle cx="120" cy="280" r="2" fill="white" opacity="0.8"/>
<circle cx="200" cy="200" r="165" fill="none" stroke="#00FFFF" stroke-width="3" opacity="0.25" stroke-dasharray="20,10"/>
<ellipse cx="115" cy="140" rx="45" ry="50" fill="#9370DB" filter="url(#shadow)"/>
<ellipse cx="115" cy="140" rx="30" ry="35" fill="#FFB6C1"/>
<ellipse cx="115" cy="145" rx="18" ry="22" fill="#FF9999"/>
<ellipse cx="285" cy="140" rx="45" ry="50" fill="#9370DB" filter="url(#shadow)"/>
<ellipse cx="285" cy="140" rx="30" ry="35" fill="#FFB6C1"/>
<ellipse cx="285" cy="145" rx="18" ry="22" fill="#FF9999"/>
<ellipse cx="200" cy="200" rx="110" ry="115" fill="#9370DB" filter="url(#shadow)"/>
<ellipse cx="180" cy="140" rx="50" ry="30" fill="#B19CD9" opacity="0.3"/>
<g clip-path="url(#head-clip)"><circle cx="110" cy="110" r="12" fill="#000" opacity="0.12"/><circle cx="193" cy="189" r="12" fill="#000" opacity="0.12"/><circle cx="276" cy="268" r="12" fill="#000" opacity="0.12"/><circle cx="179" cy="167" r="12" fill="#000" opacity="0.12"/><circle cx="262" cy="246" r="12" fill="#000" opacity="0.12"/><circle cx="165" cy="145" r="12" fill="#000" opacity="0.12"/><circle cx="248" cy="224" r="12" fill="#000" opacity="0.12"/><circle cx="151" cy="123" r="12" fill="#000" opacity="0.12"/><circle cx="234" cy="202" r="12" fill="#000" opacity="0.12"/><circle cx="137" cy="281" r="12" fill="#000" opacity="0.12"/></g>
<ellipse cx="200" cy="235" rx="70" ry="60" fill="#FFDAB9"/>
<ellipse cx="200" cy="250" rx="55" ry="40" fill="#DEB887" opacity="0.3"/>
<ellipse cx="162" cy="185" rx="22" ry="24" fill="#000" opacity="0.08"/>
<ellipse cx="238" cy="185" rx="22" ry="24" fill="#000" opacity="0.08"/>
<ellipse cx="162" cy="185" rx="18" ry="20" fill="#FF4500" filter="url(#glow)"/>
<circle cx="162" cy="185" r="10" fill="#FFD700"/>
<circle cx="162" cy="185" r="4" fill="#FFF"/>
<ellipse cx="238" cy="185" rx="18" ry="20" fill="#FF4500" filter="url(#glow)"/>
<circle cx="238" cy="185" r="10" fill="#FFD700"/>
<circle cx="238" cy="185" r="4" fill="#FFF"/>
<g>
            <ellipse cx="200" cy="230" rx="25" ry="18" fill="#8B4513"/>
            <ellipse cx="200" cy="230" rx="22" ry="15" fill="#A0522D"/>
            <ellipse cx="192" cy="230" rx="5" ry="7" fill="#5D2E0C"/>
            <ellipse cx="208" cy="230" rx="5" ry="7" fill="#5D2E0C"/>
        </g>
<line x1="182" y1="260" x2="218" y2="260" stroke="#5D2E0C" stroke-width="2"/>


<g transform="translate(325, 15)">
            <rect width="65" height="22" rx="4" fill="#4ECDC4" opacity="0.9"/>
            <text x="32" y="15" font-size="8" fill="#FFF" text-anchor="middle" font-family="sans-serif" font-weight="bold">UNCOMMON</text>
        </g>
        <g transform="translate(10, 15)">
            <rect width="45" height="22" rx="4" fill="#333" opacity="0.8"/>
            <text x="22" y="15" font-size="9" fill="#FFF" text-anchor="middle" font-family="sans-serif">Gen 1</text>
        </g>
</svg>