<svg width="400" height="400" viewBox="0 0 400 400" xmlns="http://www.w3.org/2000/svg">
<defs>
    <filter id="shadow" x="-20%" y="-20%" width="140%" height="140%">
        <feDropShadow dx="2" dy="4" stdDeviation="3" flood-opacity="0.3"/>
    </filter>
    <filter id="glow" x="-50%" y="-50%" width="200%" height="200%">
        <feGaussianBlur stdDeviation="8" result="blur"/>
        <feMerge><feMergeNode in="blur"/><feMergeNode in="SourceGraphic"/></feMerge>
    </filter>
    <linearGradient id="rainbow-body" x1="0%" y1="0%" x2="100%" y2="100%">
        <stop offset="0%" stop-color="#FF6B6B"/><stop offset="25%" stop-color="#FFE66D"/>
        <stop offset="50%" stop-color="#4ECDC4"/><stop offset="75%" stop-color="#45B7D1"/>
        <stop offset="100%" stop-color="#DDA0DD"/>
    </linearGradient>
    <radialGradient id="galaxy-body" cx="30%" cy="30%">
        <stop offset="0%" stop-color="#E6E6FA"/><stop offset="50%" stop-color="#9370DB"/>
        <stop offset="100%" stop-color="#1A0033"/>
    </radialGradient>
    <linearGradient id="holo-body" x1="0%" y1="0%" x2="100%" y2="100%">
        <stop offset="0%" stop-color="#FF00FF"/><stop offset="50%" stop-color="#00FFFF"/>
        <stop offset="100%" stop-color="#FFFF00"/>
    </linearGradient>
    <linearGradient id="sky-gradient" x1="0%" y1="0%" x2="0%" y2="100%">
        <stop offset="0%" stop-color="#87CEEB"/><stop offset="100%" stop-color="#E0F4FF"/>
    </linearGradient>
    <linearGradient id="grass-gradient" x1="0%" y1="0%" x2="0%" y2="100%">
        <stop offset="0%" stop-color="#90EE90"/><stop offset="100%" stop-color="#228B22"/>
    </linearGradient>
    <linearGradient id="sunset-gradient" x1="0%" y1="0%" x2="0%" y2="100%">
        <stop offset="0%" stop-color="#FF6B6B"/><stop offset="50%" stop-color="#FFE66D"/>
        <stop offset="100%" stop-color="#4ECDC4"/>
    </linearGradient>
    <linearGradient id="aurora-gradient" x1="0%" y1="0%" x2="100%" y2="100%">
        <stop offset="0%" stop-color="#0D1B2A"/><stop offset="30%" stop-color="#00FF7F"/>
        <stop offset="70%" stop-color="#FF00FF"/><stop offset="100%" stop-color="#0D1B2A"/>
    </linearGradient>
    <radialGradient id="multiverse-gradient" cx="50%" cy="50%">
        <stop offset="0%" stop-color="#FFD700"/><stop offset="40%" stop-color="#FF00FF"/>
        <stop offset="70%" stop-color="#00FFFF"/><stop offset="100%" stop-color="#000"/>
    </radialGradient>
    <linearGradient id="rift-gradient" x1="0%" y1="0%" x2="100%" y2="100%">
        <stop offset="0%" stop-color="#000"/><stop offset="30%" stop-color="#9400D3"/>
        <stop offset="50%" stop-color="#00FFFF"/><stop offset="70%" stop-color="#9400D3"/>
        <stop offset="100%" stop-color="#000"/>
    </linearGradient>
    <linearGradient id="heaven-gradient" x1="0%" y1="0%" x2="0%" y2="100%">
        <stop offset="0%" stop-color="#FFF"/><stop offset="50%" stop-color="#FFD700" stop-opacity="0.3"/>
        <stop offset="100%" stop-color="#F0F8FF"/>
    </linearGradient>
    <clipPath id="head-clip"><ellipse cx="200" cy="200" rx="110" ry="115"/></clipPath>
</defs>
<rect width="400" height="400" fill="#0D1B2A"/>
<circle cx="289" cy="251" r="1" fill="white" opacity="0.4"/>
<circle cx="178" cy="102" r="2" fill="white" opacity="0.5"/>
<circle cx="67" cy="353" r="1" fill="white" opacity="0.6000000000000001"/>
<circle cx="356" cy="204" r="2" fill="white" opacity="0.7000000000000001"/>
<circle cx="245" cy="55" r="1" fill="white" opacity="0.8"/>
<circle cx="134" cy="306" r="2" fill="white" opacity="0.4"/>
<circle cx="23" cy="157" r="1" fill="white" opacity="0.5"/>
<circle cx="312" cy="8" r="2" fill="white" opacity="0.6000000000000001"/>
<circle cx="201" cy="259" r="1" fill="white" opacity="0.7000000000000001"/>
<circle cx="90" cy="110" r="2" fill="white" opacity="0.8"/>
<circle cx="379" cy="361" r="1" fill="white" opacity="0.4"/>
<circle cx="268" cy="212" r="2" fill="white" opacity="0.5"/>
<circle cx="157" cy="63" r="1" fill="white" opacity="0.6000000000000001"/>
<circle cx="46" cy="314" r="2" fill="white" opacity="0.7000000000000001"/>
<circle cx="335" cy="165" r="1" fill="white" opacity="0.8"/>
<circle cx="224" cy="16" r="2" fill="white" opacity="0.4"/>
<circle cx="113" cy="267" r="1" fill="white" opacity="0.5"/>
<circle cx="2" cy="118" r="2" fill="white" opacity="0.6000000000000001"/>
<circle cx="291" cy="369" r="1" fill="white" opacity="0.7000000000000001"/>
<circle cx="180" cy="220" r="2" fill="white" opacity="0.8"/>
<circle cx="69" cy="71" r="1" fill="white" opacity="0.4"/>
<circle cx="358" cy="322" r="2" fill="white" opacity="0.5"/>
<circle cx="247" cy="173" r="1" fill="white" opacity="0.6000000000000001"/>
<circle cx="136" cy="24" r="2" fill="white" opacity="0.7000000000000001"/>
<circle cx="25" cy="275" r="1" fill="white" opacity="0.8"/>
<circle cx="314" cy="126" r="2" fill="white" opacity="0.4"/>
<circle cx="203" cy="377" r="1" fill="white" opacity="0.5"/>
<circle cx="92" cy="228" r="2" fill="white" opacity="0.6000000000000001"/>
<circle cx="381" cy="79" r="1" fill="white" opacity="0.7000000000000001"/>
<circle cx="270" cy="330" r="2" fill="white" opacity="0.8"/>
<circle cx="159" cy="181" r="1" fill="white" opacity="0.4"/>
<circle cx="48" cy="32" r="2" fill="white" opacity="0.5"/>
<circle cx="337" cy="283" r="1" fill="white" opacity="0.6000000000000001"/>
<circle cx="226" cy="134" r="2" fill="white" opacity="0.7000000000000001"/>
<circle cx="115" cy="385" r="1" fill="white" opacity="0.8"/>
<circle cx="4" cy="236" r="2" fill="white" opacity="0.4"/>
<circle cx="293" cy="87" r="1" fill="white" opacity="0.5"/>
<circle cx="182" cy="338" r="2" fill="white" opacity="0.6000000000000001"/>
<circle cx="71" cy="189" r="1" fill="white" opacity="0.7000000000000001"/>
<circle cx="360" cy="40" r="2" fill="white" opacity="0.8"/>
<circle cx="200" cy="200" r="165" fill="none" stroke="#00FFFF" stroke-width="3" opacity="0.25" stroke-dasharray="20,10"/>
<ellipse cx="115" cy="140" rx="45" ry="50" fill="#9370DB" filter="url(#shadow)"/>
<ellipse cx="115" cy="140" rx="30" ry="35" fill="#FFB6C1"/>
<ellipse cx="115" cy="145" rx="18" ry="22" fill="#FF9999"/>
<ellipse cx="285" cy="140" rx="45" ry="50" fill="#9370DB" filter="url(#shadow)"/>
<ellipse cx="285" cy="140" rx="30" ry="35" fill="#FFB6C1"/>
<ellipse cx="285" cy="145" rx="18" ry="22" fill="#FF9999"/>
<ellipse cx="200" cy="200" rx="110" ry="115" fill="#9370DB" filter="url(#shadow)"/>
<ellipse cx="180" cy="140" rx="50" ry="30" fill="#B19CD9" opacity="0.3"/>
<g clip-path="url(#head-clip)"><circle cx="110" cy="110" r="12" fill="#000" opacity="0.12"/><circle cx="259" cy="267" r="12" fill="#000" opacity="0.12"/><circle cx="228" cy="244" r="12" fill="#000" opacity="0.12"/><circle cx="197" cy="221" r="12" fill="#000" opacity="0.12"/><circle cx="166" cy="198" r="12" fill="#000" opacity="0.12"/><circle cx="135" cy="175" r="12" fill="#000" opacity="0.12"/><circle cx="284" cy="152" r="12" fill="#000" opacity="0.12"/><circle cx="253" cy="129" r="12" fill="#000" opacity="0.12"/><circle cx="222" cy="286" r="12" fill="#000" opacity="0.12"/><circle cx="191" cy="263" r="12" fill="#000" opacity="0.12"/></g>
<ellipse cx="200" cy="235" rx="70" ry="60" fill="#FFDAB9"/>
<ellipse cx="200" cy="250" rx="55" ry="40" fill="#DEB887" opacity="0.3"/>
<ellipse cx="162" cy="185" rx="22" ry="24" fill="#000" opacity="0.08"/>
<ellipse cx="238" cy="185" rx="22" ry="24" fill="#000" opacity="0.08"/>
<ellipse cx="162" cy="185" rx="18" ry="20" fill="#FF4500" filter="url(#glow)"/>
<circle cx="162" cy="185" r="10" fill="#FFD700"/>
<circle cx="162" cy="185" r="4" fill="#FFF"/>
<ellipse cx="238" cy="185" rx="18" ry="20" fill="#FF4500" filter="url(#glow)"/>
<circle cx="238" cy="185" r="10" fill="#FFD700"/>
<circle cx="238" cy="185" r="4" fill="#FFF"/>
<g>
            <ellipse cx="200" cy="230" rx="25" ry="18" fill="#8B4513"/>
            <ellipse cx="200" cy="230" rx="22" ry="15" fill="#A0522D"/>
            <ellipse cx="192" cy="230" rx="5" ry="7" fill="#5D2E0C"/>
            <ellipse cx="208" cy="230" rx="5" ry="7" fill="#5D2E0C"/>
        </g>
<line x1="182" y1="260" x2="218" y2="260" stroke="#5D2E0C" stroke-width="2"/>
<rect x="142" y="175" width="38" height="28" rx="4" fill="#000" opacity="0.85"/><rect x="220" y="175" width="38" height="28" rx="4" fill="#000" opacity="0.85"/><line x1="180" y1="189" x2="220" y2="189" stroke="#000" stroke-width="3"/><line x1="142" y1="189" x2="120" y2="180" stroke="#000" stroke-width="2"/><line x1="258" y1="189" x2="280" y2="180" stroke="#000" stroke-width="2"/>

<g transform="translate(325, 15)">
            <rect width="65" height="22" rx="4" fill="#4ECDC4" opacity="0.9"/>
            <text x="32" y="15" font-size="8" fill="#FFF" text-anchor="middle" font-family="sans-serif" font-weight="bold">UNCOMMON</text>
        </g>
        <g transform="translate(10, 15)">
            <rect width="45" height="22" rx="4" fill="#333" opacity="0.8"/>
            <text x="22" y="15" font-size="9" fill="#FFF" text-anchor="middle" font-family="sans-serif">Gen 1</text>
        </g>
</svg>