<svg width="400" height="400" viewBox="0 0 400 400" xmlns="http://www.w3.org/2000/svg">
<defs>
    <filter id="shadow" x="-20%" y="-20%" width="140%" height="140%">
        <feDropShadow dx="2" dy="4" stdDeviation="3" flood-opacity="0.3"/>
    </filter>
    <filter id="glow" x="-50%" y="-50%" width="200%" height="200%">
        <feGaussianBlur stdDeviation="8" result="blur"/>
        <feMerge><feMergeNode in="blur"/><feMergeNode in="SourceGraphic"/></feMerge>
    </filter>
    <linearGradient id="rainbow-body" x1="0%" y1="0%" x2="100%" y2="100%">
        <stop offset="0%" stop-color="#FF6B6B"/><stop offset="25%" stop-color="#FFE66D"/>
        <stop offset="50%" stop-color="#4ECDC4"/><stop offset="75%" stop-color="#45B7D1"/>
        <stop offset="100%" stop-color="#DDA0DD"/>
    </linearGradient>
    <radialGradient id="galaxy-body" cx="30%" cy="30%">
        <stop offset="0%" stop-color="#E6E6FA"/><stop offset="50%" stop-color="#9370DB"/>
        <stop offset="100%" stop-color="#1A0033"/>
    </radialGradient>
    <linearGradient id="holo-body" x1="0%" y1="0%" x2="100%" y2="100%">
        <stop offset="0%" stop-color="#FF00FF"/><stop offset="50%" stop-color="#00FFFF"/>
        <stop offset="100%" stop-color="#FFFF00"/>
    </linearGradient>
    <linearGradient id="sky-gradient" x1="0%" y1="0%" x2="0%" y2="100%">
        <stop offset="0%" stop-color="#87CEEB"/><stop offset="100%" stop-color="#E0F4FF"/>
    </linearGradient>
    <linearGradient id="grass-gradient" x1="0%" y1="0%" x2="0%" y2="100%">
        <stop offset="0%" stop-color="#90EE90"/><stop offset="100%" stop-color="#228B22"/>
    </linearGradient>
    <linearGradient id="sunset-gradient" x1="0%" y1="0%" x2="0%" y2="100%">
        <stop offset="0%" stop-color="#FF6B6B"/><stop offset="50%" stop-color="#FFE66D"/>
        <stop offset="100%" stop-color="#4ECDC4"/>
    </linearGradient>
    <linearGradient id="aurora-gradient" x1="0%" y1="0%" x2="100%" y2="100%">
        <stop offset="0%" stop-color="#0D1B2A"/><stop offset="30%" stop-color="#00FF7F"/>
        <stop offset="70%" stop-color="#FF00FF"/><stop offset="100%" stop-color="#0D1B2A"/>
    </linearGradient>
    <radialGradient id="multiverse-gradient" cx="50%" cy="50%">
        <stop offset="0%" stop-color="#FFD700"/><stop offset="40%" stop-color="#FF00FF"/>
        <stop offset="70%" stop-color="#00FFFF"/><stop offset="100%" stop-color="#000"/>
    </radialGradient>
    <linearGradient id="rift-gradient" x1="0%" y1="0%" x2="100%" y2="100%">
        <stop offset="0%" stop-color="#000"/><stop offset="30%" stop-color="#9400D3"/>
        <stop offset="50%" stop-color="#00FFFF"/><stop offset="70%" stop-color="#9400D3"/>
        <stop offset="100%" stop-color="#000"/>
    </linearGradient>
    <linearGradient id="heaven-gradient" x1="0%" y1="0%" x2="0%" y2="100%">
        <stop offset="0%" stop-color="#FFF"/><stop offset="50%" stop-color="#FFD700" stop-opacity="0.3"/>
        <stop offset="100%" stop-color="#F0F8FF"/>
    </linearGradient>
    <clipPath id="head-clip"><ellipse cx="200" cy="200" rx="110" ry="115"/></clipPath>
</defs>
<rect width="400" height="400" fill="#0D1B2A"/>
<circle cx="92" cy="228" r="1" fill="white" opacity="0.4"/>
<circle cx="184" cy="56" r="2" fill="white" opacity="0.5"/>
<circle cx="276" cy="284" r="1" fill="white" opacity="0.6000000000000001"/>
<circle cx="368" cy="112" r="2" fill="white" opacity="0.7000000000000001"/>
<circle cx="60" cy="340" r="1" fill="white" opacity="0.8"/>
<circle cx="152" cy="168" r="2" fill="white" opacity="0.4"/>
<circle cx="244" cy="396" r="1" fill="white" opacity="0.5"/>
<circle cx="336" cy="224" r="2" fill="white" opacity="0.6000000000000001"/>
<circle cx="28" cy="52" r="1" fill="white" opacity="0.7000000000000001"/>
<circle cx="120" cy="280" r="2" fill="white" opacity="0.8"/>
<circle cx="212" cy="108" r="1" fill="white" opacity="0.4"/>
<circle cx="304" cy="336" r="2" fill="white" opacity="0.5"/>
<circle cx="396" cy="164" r="1" fill="white" opacity="0.6000000000000001"/>
<circle cx="88" cy="392" r="2" fill="white" opacity="0.7000000000000001"/>
<circle cx="180" cy="220" r="1" fill="white" opacity="0.8"/>
<circle cx="272" cy="48" r="2" fill="white" opacity="0.4"/>
<circle cx="364" cy="276" r="1" fill="white" opacity="0.5"/>
<circle cx="56" cy="104" r="2" fill="white" opacity="0.6000000000000001"/>
<circle cx="148" cy="332" r="1" fill="white" opacity="0.7000000000000001"/>
<circle cx="240" cy="160" r="2" fill="white" opacity="0.8"/>
<circle cx="332" cy="388" r="1" fill="white" opacity="0.4"/>
<circle cx="24" cy="216" r="2" fill="white" opacity="0.5"/>
<circle cx="116" cy="44" r="1" fill="white" opacity="0.6000000000000001"/>
<circle cx="208" cy="272" r="2" fill="white" opacity="0.7000000000000001"/>
<circle cx="300" cy="100" r="1" fill="white" opacity="0.8"/>
<circle cx="392" cy="328" r="2" fill="white" opacity="0.4"/>
<circle cx="84" cy="156" r="1" fill="white" opacity="0.5"/>
<circle cx="176" cy="384" r="2" fill="white" opacity="0.6000000000000001"/>
<circle cx="268" cy="212" r="1" fill="white" opacity="0.7000000000000001"/>
<circle cx="360" cy="40" r="2" fill="white" opacity="0.8"/>
<circle cx="52" cy="268" r="1" fill="white" opacity="0.4"/>
<circle cx="144" cy="96" r="2" fill="white" opacity="0.5"/>
<circle cx="236" cy="324" r="1" fill="white" opacity="0.6000000000000001"/>
<circle cx="328" cy="152" r="2" fill="white" opacity="0.7000000000000001"/>
<circle cx="20" cy="380" r="1" fill="white" opacity="0.8"/>
<circle cx="112" cy="208" r="2" fill="white" opacity="0.4"/>
<circle cx="204" cy="36" r="1" fill="white" opacity="0.5"/>
<circle cx="296" cy="264" r="2" fill="white" opacity="0.6000000000000001"/>
<circle cx="388" cy="92" r="1" fill="white" opacity="0.7000000000000001"/>
<circle cx="80" cy="320" r="2" fill="white" opacity="0.8"/>
<circle cx="200" cy="200" r="165" fill="none" stroke="#00FFFF" stroke-width="3" opacity="0.25" stroke-dasharray="20,10"/>
<ellipse cx="115" cy="140" rx="45" ry="50" fill="#CD7F32" filter="url(#shadow)"/>
<ellipse cx="115" cy="140" rx="30" ry="35" fill="#FFB6C1"/>
<ellipse cx="115" cy="145" rx="18" ry="22" fill="#FF9999"/>
<ellipse cx="285" cy="140" rx="45" ry="50" fill="#CD7F32" filter="url(#shadow)"/>
<ellipse cx="285" cy="140" rx="30" ry="35" fill="#FFB6C1"/>
<ellipse cx="285" cy="145" rx="18" ry="22" fill="#FF9999"/>
<ellipse cx="200" cy="200" rx="110" ry="115" fill="#CD7F32" filter="url(#shadow)"/>
<ellipse cx="180" cy="140" rx="50" ry="30" fill="#DAA06D" opacity="0.3"/>
<g clip-path="url(#head-clip)"><text x="130" y="130" font-size="16" fill="#FF69B4" opacity="0.4">♥</text><text x="134" y="238" font-size="16" fill="#FF69B4" opacity="0.4">♥</text><text x="138" y="206" font-size="16" fill="#FF69B4" opacity="0.4">♥</text><text x="142" y="174" font-size="16" fill="#FF69B4" opacity="0.4">♥</text><text x="146" y="142" font-size="16" fill="#FF69B4" opacity="0.4">♥</text><text x="150" y="250" font-size="16" fill="#FF69B4" opacity="0.4">♥</text><text x="154" y="218" font-size="16" fill="#FF69B4" opacity="0.4">♥</text></g>
<ellipse cx="200" cy="235" rx="70" ry="60" fill="#FFDAB9"/>
<ellipse cx="200" cy="250" rx="55" ry="40" fill="#DEB887" opacity="0.3"/>
<ellipse cx="162" cy="185" rx="22" ry="24" fill="#000" opacity="0.08"/>
<ellipse cx="238" cy="185" rx="22" ry="24" fill="#000" opacity="0.08"/>
<ellipse cx="162" cy="185" rx="18" ry="20" fill="#FF4500" filter="url(#glow)"/>
<circle cx="162" cy="185" r="10" fill="#FFD700"/>
<circle cx="162" cy="185" r="4" fill="#FFF"/>
<ellipse cx="238" cy="185" rx="18" ry="20" fill="#FF4500" filter="url(#glow)"/>
<circle cx="238" cy="185" r="10" fill="#FFD700"/>
<circle cx="238" cy="185" r="4" fill="#FFF"/>
<g>
            <ellipse cx="200" cy="230" rx="25" ry="18" fill="#8B4513"/>
            <ellipse cx="200" cy="230" rx="22" ry="15" fill="#A0522D"/>
            <ellipse cx="192" cy="230" rx="5" ry="7" fill="#5D2E0C"/>
            <ellipse cx="208" cy="230" rx="5" ry="7" fill="#5D2E0C"/>
        </g>
<line x1="182" y1="260" x2="218" y2="260" stroke="#5D2E0C" stroke-width="2"/>
<polygon points="165,70 180,45 200,65 220,45 235,70" fill="#FFD700" stroke="#DAA520" stroke-width="2"/><rect x="165" y="70" width="70" height="12" fill="#FFD700" stroke="#DAA520" stroke-width="2"/>

<g transform="translate(325, 15)">
            <rect width="65" height="22" rx="4" fill="#4ECDC4" opacity="0.9"/>
            <text x="32" y="15" font-size="8" fill="#FFF" text-anchor="middle" font-family="sans-serif" font-weight="bold">UNCOMMON</text>
        </g>
        <g transform="translate(10, 15)">
            <rect width="45" height="22" rx="4" fill="#333" opacity="0.8"/>
            <text x="22" y="15" font-size="9" fill="#FFF" text-anchor="middle" font-family="sans-serif">Gen 1</text>
        </g>
</svg>